<svg xmlns="http://www.w3.org/2000/svg" viewBox="0 0 311.62 312.11"><defs><style>.cls-1{fill:none;stroke:#ff003c;stroke-miterlimit:10;stroke-width:24px;}.cls-2{fill:#ff003c;}</style></defs><g id="Layer_2" data-name="Layer 2"><g id="Layer_1-2" data-name="Layer 1"><path class="cls-1" d="M156,300a144,144,0,0,1,0-288"/><path class="cls-1" d="M155.62,300.11a144,144,0,0,0,0-288"/><path class="cls-2" d="M156,6V18h-.38c-2,0-3.88.05-5.81.14a136.84,136.84,0,0,0-30.34,4.77A138.42,138.42,0,0,0,44.23,75.16a137.44,137.44,0,0,0-26.11,75.13c-.08,1.9-.12,3.8-.12,5.71,0,2.11.05,4.2.14,6.29a137.46,137.46,0,0,0,26.55,75.18,138.37,138.37,0,0,0,74.71,51.6,136.8,136.8,0,0,0,30.41,4.79c1.5.07,3,.11,4.52.13H156v12h-1.94A150.06,150.06,0,0,1,29.2,236.07q-3.91-6.18-7.24-12.76a149.92,149.92,0,0,1-.32-134q3.28-6.58,7.17-12.78A150,150,0,0,1,156,6Z"/><path class="cls-2" d="M155.91,306c-21.62,0-41.61-16.16-56.28-45.5-14-28-21.72-65.12-21.72-104.5S85.62,79.54,99.63,51.52C114.3,22.18,134.29,6,155.91,6V18c-16.84,0-33,13.8-45.55,38.86C97.17,83.27,89.91,118.48,89.91,156s7.26,72.76,20.45,99.14C122.89,280.23,139.07,294,155.91,294Z"/><rect class="cls-2" x="149.81" y="12.06" width="12" height="288"/><path class="cls-2" d="M155.72,306.08v-12c16.84,0,33-13.8,45.55-38.86,13.19-26.38,20.45-61.59,20.45-99.14s-7.26-72.76-20.45-99.14c-12.53-25.06-28.71-38.86-45.55-38.86v-12c21.62,0,41.61,16.16,56.28,45.5,14,28,21.72,65.13,21.72,104.5S226,232.58,212,260.59C197.33,289.93,177.34,306.08,155.72,306.08Z"/><path class="cls-2" d="M305.62,156.11a149.1,149.1,0,0,1-15.92,67.21,146.64,146.64,0,0,1-7.23,12.77,150,150,0,0,1-126.85,70v-12H156c1.95,0,3.88-.05,5.81-.14a136.84,136.84,0,0,0,30.34-4.77h0a138.64,138.64,0,0,0,83.17-64.49,137,137,0,0,0,18.15-62.42q.13-3.07.14-6.18,0-2.93-.12-5.82a137,137,0,0,0-17.94-62.38A138.69,138.69,0,0,0,192.23,23h0a136.8,136.8,0,0,0-30.41-4.79c-1.5-.07-3-.11-4.51-.13h-1.68v-12h1.94a150.05,150.05,0,0,1,125.16,70.4q3.88,6.2,7.18,12.78A149,149,0,0,1,305.62,156.11Z"/><path class="cls-2" d="M289.9,89.3c-4.77-.5-9.56-1-14.34-1.39Q250,85.57,224.38,84.24q-6.33-.34-12.66-.6-24.94-1.06-49.91-1.17-6,0-12,0-25,.11-49.93,1.18-6.33.25-12.65.6Q61.57,85.59,36,87.94q-7.19.65-14.35,1.39,3.28-6.58,7.17-12.78,7.71-.75,15.42-1.39,23.37-2,46.81-3.11,6.48-.33,13-.57,22.89-.9,45.81-1c4,0,8,0,12,0q22.91.09,45.78,1h0q6.48.24,13,.57,23.4,1.13,46.75,3.1c5.14.42,10.27.89,15.41,1.38Q286.61,82.72,289.9,89.3Z"/><rect class="cls-2" x="12.14" y="150.3" width="287.55" height="12"/><path class="cls-2" d="M289.7,223.32a146.64,146.64,0,0,1-7.23,12.77q-7.73.75-15.45,1.39-23.26,2-46.61,3.09-6.49.31-13,.56-22.8.9-45.62,1c-2,0-3.93,0-5.9,0s-4.07,0-6.1,0q-22.8-.09-45.6-1-6.49-.25-13-.57-23.29-1.12-46.54-3.09-7.75-.65-15.49-1.4-3.91-6.18-7.24-12.76c4.79.48,9.59.95,14.39,1.38q25.47,2.34,51,3.66h0q6.33.35,12.66.6,24.86,1.06,49.76,1.17,6,0,12,0,24.9-.1,49.78-1.16c4.22-.18,8.45-.37,12.67-.6q25.58-1.32,51.07-3.65C280.12,224.27,284.92,223.81,289.7,223.32Z"/></g></g></svg>