<svg xmlns="http://www.w3.org/2000/svg" viewBox="0 0 415 415"><defs><style>.cls-1{fill:none;stroke:#ff003c;stroke-miterlimit:10;stroke-width:24px;}.cls-2{fill:#ff003c;}</style></defs><g id="Layer_2" data-name="Layer 2"><g id="Layer_1-2" data-name="Layer 1"><circle cx="207.5" cy="207.5" r="207.5"/><path class="cls-1" d="M207.69,351.44a144,144,0,0,1,0-288"/><path class="cls-1" d="M207.31,351.56a144,144,0,0,0,0-288"/><path class="cls-2" d="M207.69,57.45v12h-.38c-1.95,0-3.88,0-5.81.14a136.25,136.25,0,0,0-30.34,4.76A138.42,138.42,0,0,0,95.92,126.6a137.62,137.62,0,0,0-26.11,75.13c-.08,1.91-.12,3.8-.12,5.72,0,2.1,0,4.2.14,6.28a137.28,137.28,0,0,0,26.55,75.18,138.44,138.44,0,0,0,74.71,51.61,136.79,136.79,0,0,0,30.41,4.78c1.5.08,3,.11,4.52.13h0c.55,0,1.1,0,1.65,0v12h-.38l-1.47,0h-.09A150.05,150.05,0,0,1,80.89,287.52q-3.92-6.18-7.24-12.76a149.94,149.94,0,0,1-.32-134Q76.61,134.2,80.5,128A150,150,0,0,1,207.69,57.45Z"/><path class="cls-2" d="M207.6,357.47C186,357.47,166,341.32,151.32,312c-14-28-21.72-65.13-21.72-104.51S137.31,131,151.32,103C166,73.63,186,57.47,207.6,57.47v12c-16.84,0-33,13.8-45.55,38.86-13.19,26.38-20.45,61.59-20.45,99.14s7.26,72.76,20.45,99.14c12.53,25.06,28.71,38.86,45.55,38.86Z"/><rect class="cls-2" x="201.5" y="63.5" width="12" height="288"/><path class="cls-2" d="M207.41,357.53v-12c16.84,0,33-13.8,45.54-38.86,13.19-26.38,20.46-61.59,20.46-99.14s-7.27-72.76-20.46-99.14c-12.53-25.06-28.7-38.86-45.54-38.86v-12C229,57.53,249,73.68,263.69,103c14,28,21.72,65.13,21.72,104.51S277.69,284,263.69,312C249,341.37,229,357.53,207.41,357.53Z"/><path class="cls-2" d="M357.31,207.55a149.15,149.15,0,0,1-15.92,67.22q-3.3,6.57-7.23,12.76a150,150,0,0,1-126.85,70v-12h.38c1.95,0,3.88,0,5.81-.14a136.25,136.25,0,0,0,30.34-4.76h0a138.49,138.49,0,0,0,74.86-51.73,137.57,137.57,0,0,0,26.46-75.19q.13-3.07.14-6.18,0-2.93-.12-5.82a137,137,0,0,0-17.94-62.38,138.84,138.84,0,0,0-83.33-64.87h0A136.21,136.21,0,0,0,213.5,69.7c-1.5-.08-3-.11-4.51-.13h0c-.55,0-1.11,0-1.66,0v-12h.38l1.48,0h.08A150,150,0,0,1,334.41,128q3.88,6.2,7.18,12.78A149.1,149.1,0,0,1,357.31,207.55Z"/><path class="cls-2" d="M341.59,140.74c-4.77-.5-9.56-1-14.34-1.39q-25.54-2.34-51.18-3.67-6.33-.33-12.66-.59-24.95-1.07-49.91-1.18h-12q-25,.1-49.93,1.18c-4.22.18-8.43.37-12.65.61q-25.66,1.34-51.24,3.69c-4.79.43-9.57.88-14.35,1.38Q76.61,134.2,80.5,128q7.71-.75,15.42-1.39,23.37-2,46.81-3.11c4.32-.22,8.64-.4,13-.57q22.89-.89,45.81-1c4,0,8,0,12,0q22.91.09,45.78,1h0q6.48.25,13,.57,23.4,1.13,46.75,3.11,7.71.63,15.41,1.37Q338.29,134.16,341.59,140.74Z"/><rect class="cls-2" x="63.83" y="201.74" width="287.55" height="12"/><path class="cls-2" d="M341.39,274.77q-3.3,6.57-7.23,12.76-7.73.75-15.45,1.39-23.26,2-46.61,3.1-6.5.3-13,.56-22.8.89-45.62,1c-2,0-3.93,0-5.9,0s-4.07,0-6.1,0q-22.8-.09-45.6-1-6.5-.27-13-.57-23.29-1.12-46.54-3.1-7.75-.65-15.49-1.39-3.92-6.18-7.24-12.76c4.79.47,9.59.95,14.39,1.38q25.47,2.34,51,3.65h0q6.33.34,12.66.61,24.85,1.05,49.76,1.17,6,0,12,0,24.9-.12,49.78-1.17c4.22-.18,8.45-.37,12.67-.6q25.57-1.32,51.07-3.65C331.81,275.71,336.61,275.26,341.39,274.77Z"/></g></g></svg>